<svg xmlns="http://www.w3.org/2000/svg" width="32" height="32" id="email"><path d="M16.006 6.5c-.016 0-.033 0-.049.002a.5.5 0 0 0-.27.1L13.18 8.48H8.504v3.504l-1.697 1.272a.5.5 0 0 0-.291.635.5.5 0 0 0-.012.117v10.967a.5.5 0 0 0 .002.076.5.5 0 0 0 .02.097.5.5 0 0 0 .017.045.5.5 0 0 0 0 .002.5.5 0 0 0 .021.043.5.5 0 0 0 0 .002.5.5 0 0 0 .168.18.5.5 0 0 0 .002 0 .5.5 0 0 0 .041.025.5.5 0 0 0 .002 0 .5.5 0 0 0 .141.047.5.5 0 0 0 .002 0 .5.5 0 0 0 .047.006.5.5 0 0 0 .002 0 .5.5 0 0 0 .004 0 .5.5 0 0 0 .03.002.5.5 0 0 0 .015 0h17.88a.5.5 0 0 0 .606-.576V14.008a.5.5 0 0 0-.037-.197.5.5 0 0 0-.492-.592.5.5 0 0 0-.133.017 4.39 4.39 0 0 0 .662-2.302c0-2.442-1.986-4.434-4.422-4.434-1.251 0-2.377.53-3.182 1.371L16.285 6.6a.5.5 0 0 0-.28-.1zm5.076 1c.934 0 1.778.375 2.395.98h-.008c.01.01.025.014.035.024.619.62 1 1.478 1 2.43 0 .95-.381 1.81-1 2.43-.285.284-.63.503-1 .673v.012a3.403 3.403 0 0 1-1.422.316 3.418 3.418 0 0 1-3.42-3.431 3.42 3.42 0 0 1 3.42-3.434zm-5.094.125 1.143.855h-2.283l1.14-.855zm6.61 1.799a.5.5 0 0 0-.051.004.5.5 0 0 0-.049.01.5.5 0 0 0-.047.013.5.5 0 0 0-.047.018.5.5 0 0 0-.021.011.5.5 0 0 0-.13.096l-1.65 1.658-.7-.673a.5.5 0 0 0-.364-.143.5.5 0 0 0-.209.05.5.5 0 0 0-.03.016.5.5 0 0 0-.042.028.5.5 0 0 0-.04.031.5.5 0 0 0-.034.035.5.5 0 0 0-.032.037.5.5 0 0 0-.029.043.5.5 0 0 0-.023.043.5.5 0 0 0-.02.047.5.5 0 0 0-.014.047.5.5 0 0 0-.01.049.5.5 0 0 0-.005.05.5.5 0 0 0 0 .05.5.5 0 0 0 .006.05.5.5 0 0 0 .01.049.5.5 0 0 0 .013.047.5.5 0 0 0 .022.047.5.5 0 0 0 .023.043.5.5 0 0 0 .027.04.5.5 0 0 0 .034.04.5.5 0 0 0 .023.023l.26.248.705.676a.5.5 0 0 0 .789.084l1.54-1.549.46-.46a.5.5 0 0 0 .033-.038.5.5 0 0 0 .031-.039.5.5 0 0 0 .026-.043.5.5 0 0 0 .021-.045.5.5 0 0 0 .018-.047.5.5 0 0 0 .012-.049.5.5 0 0 0 .007-.048.5.5 0 0 0 .002-.051.5.5 0 0 0-.002-.049.5.5 0 0 0-.007-.05.5.5 0 0 0-.014-.05.5.5 0 0 0-.016-.046.5.5 0 0 0-.023-.045.5.5 0 0 0-.026-.041.5.5 0 0 0-.03-.041.5.5 0 0 0-.034-.036.5.5 0 0 0-.037-.033.5.5 0 0 0-.041-.029.5.5 0 0 0-.045-.025.5.5 0 0 0-.045-.02.5.5 0 0 0-.047-.016.5.5 0 0 0-.049-.011.5.5 0 0 0-.05-.006.5.5 0 0 0-.05 0zM9.504 9.48h7.422a4.39 4.39 0 0 0-.217.989h-4.205v1.062h4.219c.046.336.121.661.238.969h-5.457v1.063h6.04c.266.357.582.673.94.937h-4.98v1.063h5v-1.045a4.371 4.371 0 0 0 2.578.847c.129 0 .25-.026.375-.037l-5.47 3.416-6.483-4.04V9.48zm-1 3.754v.848l-.617-.385.617-.463zm16 1.368v9.472l-5.217-3.486a.5.5 0 0 0-.283-.09v.002a.5.5 0 0 0-.274.92l4.614 3.08H8.654l4.62-3.08a.5.5 0 0 0-.288-.92.5.5 0 0 0-.267.088l-5.215 3.478v-9.431l1 .623 7.219 4.5.033.021h.006a.5.5 0 0 0 .002.002.5.5 0 0 0 .002 0 .5.5 0 0 0 .013.006.5.5 0 0 0 .076.027.5.5 0 0 0 .03.008.5.5 0 0 0 .02.004.5.5 0 0 0 .003 0 .5.5 0 0 0 .045.006.5.5 0 0 0 .006 0 .5.5 0 0 0 .123-.008.5.5 0 0 0 .02-.004.5.5 0 0 0 .095-.033.5.5 0 0 0 .016-.008h.006l.027-.017a.5.5 0 0 0 .006-.004l7.252-4.53v-.001l1-.625z" color="#000" font-family="sans-serif" font-weight="400" overflow="visible" style="line-height:normal;text-indent:0;text-align:start;text-decoration-line:none;text-decoration-style:solid;text-decoration-color:#000;text-transform:none;block-progression:tb;white-space:normal;isolation:auto;mix-blend-mode:normal;solid-color:#000;solid-opacity:1"></path></svg>